<mxfile host="app.diagrams.net" agent="Mozilla/5.0 (Macintosh; Intel Mac OS X 10_15_7) AppleWebKit/537.36 (KHTML, like Gecko) Chrome/138.0.0.0 Safari/537.36" version="27.1.6" pages="2">
  <diagram name="Page-1" id="BoDy7NevnX0Mhk-mCmAA">
    <mxGraphModel dx="2156" dy="870" grid="1" gridSize="10" guides="1" tooltips="1" connect="1" arrows="1" fold="1" page="1" pageScale="1" pageWidth="850" pageHeight="1100" math="0" shadow="0">
      <root>
        <mxCell id="0" />
        <mxCell id="1" parent="0" />
        <mxCell id="jBXar1gpOPkVWvq_tCqW-1" value="Account Setup" style="text;html=1;align=center;verticalAlign=middle;resizable=0;points=[];autosize=1;strokeColor=none;fillColor=none;fontStyle=1" parent="1" vertex="1">
          <mxGeometry x="40" y="360" width="100" height="30" as="geometry" />
        </mxCell>
        <mxCell id="jBXar1gpOPkVWvq_tCqW-5" value="" style="edgeStyle=orthogonalEdgeStyle;rounded=0;orthogonalLoop=1;jettySize=auto;html=1;" parent="1" source="jBXar1gpOPkVWvq_tCqW-2" target="jBXar1gpOPkVWvq_tCqW-4" edge="1">
          <mxGeometry relative="1" as="geometry" />
        </mxCell>
        <mxCell id="jBXar1gpOPkVWvq_tCqW-9" style="edgeStyle=orthogonalEdgeStyle;rounded=0;orthogonalLoop=1;jettySize=auto;html=1;entryX=0;entryY=0.5;entryDx=0;entryDy=0;" parent="1" source="jBXar1gpOPkVWvq_tCqW-2" target="jBXar1gpOPkVWvq_tCqW-8" edge="1">
          <mxGeometry relative="1" as="geometry" />
        </mxCell>
        <mxCell id="jBXar1gpOPkVWvq_tCqW-2" value="Invite User" style="rounded=0;whiteSpace=wrap;html=1;" parent="1" vertex="1">
          <mxGeometry x="40" y="80" width="120" height="60" as="geometry" />
        </mxCell>
        <mxCell id="jBXar1gpOPkVWvq_tCqW-7" value="" style="edgeStyle=orthogonalEdgeStyle;rounded=0;orthogonalLoop=1;jettySize=auto;html=1;" parent="1" source="jBXar1gpOPkVWvq_tCqW-4" target="jBXar1gpOPkVWvq_tCqW-6" edge="1">
          <mxGeometry relative="1" as="geometry" />
        </mxCell>
        <mxCell id="jBXar1gpOPkVWvq_tCqW-4" value="/user" style="whiteSpace=wrap;html=1;rounded=0;" parent="1" vertex="1">
          <mxGeometry x="240" y="80" width="120" height="60" as="geometry" />
        </mxCell>
        <mxCell id="jBXar1gpOPkVWvq_tCqW-6" value="creates an entry in User table&amp;nbsp;" style="whiteSpace=wrap;html=1;rounded=0;" parent="1" vertex="1">
          <mxGeometry x="440" y="80" width="120" height="60" as="geometry" />
        </mxCell>
        <mxCell id="jBXar1gpOPkVWvq_tCqW-11" style="edgeStyle=orthogonalEdgeStyle;rounded=0;orthogonalLoop=1;jettySize=auto;html=1;" parent="1" source="jBXar1gpOPkVWvq_tCqW-8" target="jBXar1gpOPkVWvq_tCqW-10" edge="1">
          <mxGeometry relative="1" as="geometry" />
        </mxCell>
        <mxCell id="jBXar1gpOPkVWvq_tCqW-8" value="/notification" style="whiteSpace=wrap;html=1;rounded=0;" parent="1" vertex="1">
          <mxGeometry x="240" y="200" width="120" height="60" as="geometry" />
        </mxCell>
        <mxCell id="jBXar1gpOPkVWvq_tCqW-10" value="Actor" style="shape=umlActor;verticalLabelPosition=bottom;verticalAlign=top;html=1;outlineConnect=0;" parent="1" vertex="1">
          <mxGeometry x="480" y="200" width="30" height="60" as="geometry" />
        </mxCell>
        <mxCell id="jBXar1gpOPkVWvq_tCqW-17" value="" style="edgeStyle=orthogonalEdgeStyle;rounded=0;orthogonalLoop=1;jettySize=auto;html=1;" parent="1" source="jBXar1gpOPkVWvq_tCqW-15" target="jBXar1gpOPkVWvq_tCqW-16" edge="1">
          <mxGeometry relative="1" as="geometry" />
        </mxCell>
        <mxCell id="jBXar1gpOPkVWvq_tCqW-15" value="Actor" style="shape=umlActor;verticalLabelPosition=bottom;verticalAlign=top;html=1;outlineConnect=0;" parent="1" vertex="1">
          <mxGeometry x="-50" y="400" width="30" height="60" as="geometry" />
        </mxCell>
        <mxCell id="jBXar1gpOPkVWvq_tCqW-20" value="" style="edgeStyle=orthogonalEdgeStyle;rounded=0;orthogonalLoop=1;jettySize=auto;html=1;" parent="1" source="jBXar1gpOPkVWvq_tCqW-16" target="jBXar1gpOPkVWvq_tCqW-19" edge="1">
          <mxGeometry relative="1" as="geometry" />
        </mxCell>
        <mxCell id="jBXar1gpOPkVWvq_tCqW-16" value="Invite User" style="rounded=0;whiteSpace=wrap;html=1;" parent="1" vertex="1">
          <mxGeometry x="40" y="400" width="120" height="60" as="geometry" />
        </mxCell>
        <mxCell id="jBXar1gpOPkVWvq_tCqW-18" value="Invite User" style="text;html=1;align=center;verticalAlign=middle;resizable=0;points=[];autosize=1;strokeColor=none;fillColor=none;fontStyle=1" parent="1" vertex="1">
          <mxGeometry x="30" y="40" width="80" height="30" as="geometry" />
        </mxCell>
        <mxCell id="jBXar1gpOPkVWvq_tCqW-22" value="" style="edgeStyle=orthogonalEdgeStyle;rounded=0;orthogonalLoop=1;jettySize=auto;html=1;" parent="1" source="jBXar1gpOPkVWvq_tCqW-19" target="jBXar1gpOPkVWvq_tCqW-21" edge="1">
          <mxGeometry relative="1" as="geometry" />
        </mxCell>
        <mxCell id="jBXar1gpOPkVWvq_tCqW-19" value="Account Setup" style="whiteSpace=wrap;html=1;rounded=0;" parent="1" vertex="1">
          <mxGeometry x="240" y="400" width="120" height="60" as="geometry" />
        </mxCell>
        <mxCell id="jBXar1gpOPkVWvq_tCqW-24" value="" style="edgeStyle=orthogonalEdgeStyle;rounded=0;orthogonalLoop=1;jettySize=auto;html=1;" parent="1" source="jBXar1gpOPkVWvq_tCqW-21" target="jBXar1gpOPkVWvq_tCqW-23" edge="1">
          <mxGeometry relative="1" as="geometry" />
        </mxCell>
        <mxCell id="jBXar1gpOPkVWvq_tCqW-21" value="Supabase" style="whiteSpace=wrap;html=1;rounded=0;" parent="1" vertex="1">
          <mxGeometry x="435" y="400" width="120" height="60" as="geometry" />
        </mxCell>
        <mxCell id="jBXar1gpOPkVWvq_tCqW-26" value="" style="edgeStyle=orthogonalEdgeStyle;rounded=0;orthogonalLoop=1;jettySize=auto;html=1;" parent="1" source="jBXar1gpOPkVWvq_tCqW-23" target="jBXar1gpOPkVWvq_tCqW-25" edge="1">
          <mxGeometry relative="1" as="geometry" />
        </mxCell>
        <mxCell id="jBXar1gpOPkVWvq_tCqW-23" value="Signup" style="whiteSpace=wrap;html=1;rounded=0;" parent="1" vertex="1">
          <mxGeometry x="620" y="400" width="120" height="60" as="geometry" />
        </mxCell>
        <mxCell id="jBXar1gpOPkVWvq_tCqW-25" value="Email Notification&lt;br&gt;(Confirmation)&amp;nbsp;" style="whiteSpace=wrap;html=1;rounded=0;" parent="1" vertex="1">
          <mxGeometry x="800" y="400" width="120" height="60" as="geometry" />
        </mxCell>
        <mxCell id="jBXar1gpOPkVWvq_tCqW-31" style="edgeStyle=orthogonalEdgeStyle;rounded=0;orthogonalLoop=1;jettySize=auto;html=1;entryX=0;entryY=0.5;entryDx=0;entryDy=0;" parent="1" source="jBXar1gpOPkVWvq_tCqW-27" target="jBXar1gpOPkVWvq_tCqW-29" edge="1">
          <mxGeometry relative="1" as="geometry">
            <mxPoint x="20" y="630" as="targetPoint" />
          </mxGeometry>
        </mxCell>
        <mxCell id="jBXar1gpOPkVWvq_tCqW-27" value="Actor" style="shape=umlActor;verticalLabelPosition=bottom;verticalAlign=top;html=1;outlineConnect=0;" parent="1" vertex="1">
          <mxGeometry x="-50" y="600" width="30" height="60" as="geometry" />
        </mxCell>
        <mxCell id="jBXar1gpOPkVWvq_tCqW-28" value="Sign In" style="text;html=1;align=center;verticalAlign=middle;resizable=0;points=[];autosize=1;strokeColor=none;fillColor=none;fontStyle=1" parent="1" vertex="1">
          <mxGeometry x="40" y="560" width="60" height="30" as="geometry" />
        </mxCell>
        <mxCell id="jBXar1gpOPkVWvq_tCqW-33" value="" style="edgeStyle=orthogonalEdgeStyle;rounded=0;orthogonalLoop=1;jettySize=auto;html=1;" parent="1" source="jBXar1gpOPkVWvq_tCqW-29" target="jBXar1gpOPkVWvq_tCqW-32" edge="1">
          <mxGeometry relative="1" as="geometry" />
        </mxCell>
        <mxCell id="jBXar1gpOPkVWvq_tCqW-29" value="Sign in" style="rounded=0;whiteSpace=wrap;html=1;" parent="1" vertex="1">
          <mxGeometry x="40" y="600" width="120" height="60" as="geometry" />
        </mxCell>
        <mxCell id="jBXar1gpOPkVWvq_tCqW-35" value="" style="edgeStyle=orthogonalEdgeStyle;rounded=0;orthogonalLoop=1;jettySize=auto;html=1;" parent="1" source="jBXar1gpOPkVWvq_tCqW-32" target="jBXar1gpOPkVWvq_tCqW-34" edge="1">
          <mxGeometry relative="1" as="geometry" />
        </mxCell>
        <mxCell id="jBXar1gpOPkVWvq_tCqW-32" value="Supabase" style="whiteSpace=wrap;html=1;rounded=0;" parent="1" vertex="1">
          <mxGeometry x="425" y="600" width="120" height="60" as="geometry" />
        </mxCell>
        <mxCell id="jBXar1gpOPkVWvq_tCqW-34" value="Return Token" style="whiteSpace=wrap;html=1;rounded=0;" parent="1" vertex="1">
          <mxGeometry x="625" y="600" width="120" height="60" as="geometry" />
        </mxCell>
      </root>
    </mxGraphModel>
  </diagram>
  <diagram id="2Hzed9zc7KHOFPWA9Zcn" name="Page-2">
    <mxGraphModel dx="2395" dy="870" grid="1" gridSize="10" guides="1" tooltips="1" connect="1" arrows="1" fold="1" page="1" pageScale="1" pageWidth="850" pageHeight="1100" math="0" shadow="0">
      <root>
        <mxCell id="0" />
        <mxCell id="1" parent="0" />
        <mxCell id="DscDZog3NxIWNlE2ua5N-66" value="" style="rounded=1;arcSize=10;dashed=1;fillColor=none;gradientColor=none;dashPattern=1 1;strokeWidth=2;" parent="1" vertex="1">
          <mxGeometry x="110" y="190" width="980" height="640" as="geometry" />
        </mxCell>
        <mxCell id="DscDZog3NxIWNlE2ua5N-1" value="AWS Cloud" style="sketch=0;outlineConnect=0;gradientColor=none;html=1;whiteSpace=wrap;fontSize=12;fontStyle=0;shape=mxgraph.aws4.group;grIcon=mxgraph.aws4.group_aws_cloud;strokeColor=#858B94;fillColor=none;verticalAlign=top;align=left;spacingLeft=30;fontColor=#858B94;dashed=0;" parent="1" vertex="1">
          <mxGeometry x="-170" y="170" width="1280" height="670" as="geometry" />
        </mxCell>
        <mxCell id="DscDZog3NxIWNlE2ua5N-12" style="edgeStyle=orthogonalEdgeStyle;rounded=0;orthogonalLoop=1;jettySize=auto;html=1;" parent="1" source="DscDZog3NxIWNlE2ua5N-2" target="DscDZog3NxIWNlE2ua5N-4" edge="1">
          <mxGeometry relative="1" as="geometry" />
        </mxCell>
        <mxCell id="DscDZog3NxIWNlE2ua5N-2" value="Amazon S3" style="sketch=0;outlineConnect=0;fontColor=#232F3E;gradientColor=none;strokeColor=#ffffff;fillColor=#232F3E;dashed=0;verticalLabelPosition=middle;verticalAlign=bottom;align=center;html=1;whiteSpace=wrap;fontSize=10;fontStyle=1;spacing=3;shape=mxgraph.aws4.productIcon;prIcon=mxgraph.aws4.s3;" parent="1" vertex="1">
          <mxGeometry x="150" y="210" width="80" height="100" as="geometry" />
        </mxCell>
        <mxCell id="DscDZog3NxIWNlE2ua5N-14" style="edgeStyle=orthogonalEdgeStyle;rounded=0;orthogonalLoop=1;jettySize=auto;html=1;" parent="1" source="DscDZog3NxIWNlE2ua5N-4" target="DscDZog3NxIWNlE2ua5N-5" edge="1">
          <mxGeometry relative="1" as="geometry" />
        </mxCell>
        <mxCell id="DscDZog3NxIWNlE2ua5N-4" value="snaplife-bff-service" style="outlineConnect=0;dashed=0;verticalLabelPosition=bottom;verticalAlign=top;align=center;html=1;shape=mxgraph.aws3.lambda;fillColor=#F58534;gradientColor=none;" parent="1" vertex="1">
          <mxGeometry x="334" y="213.5" width="91" height="93" as="geometry" />
        </mxCell>
        <mxCell id="DscDZog3NxIWNlE2ua5N-32" style="edgeStyle=orthogonalEdgeStyle;rounded=0;orthogonalLoop=1;jettySize=auto;html=1;entryX=0.52;entryY=0.028;entryDx=0;entryDy=0;entryPerimeter=0;" parent="1" target="DscDZog3NxIWNlE2ua5N-31" edge="1">
          <mxGeometry relative="1" as="geometry">
            <mxPoint x="630" y="275" as="sourcePoint" />
            <mxPoint x="1351" y="440" as="targetPoint" />
            <Array as="points">
              <mxPoint x="1351" y="275" />
            </Array>
          </mxGeometry>
        </mxCell>
        <mxCell id="DscDZog3NxIWNlE2ua5N-5" value="snaplife-organization-service" style="outlineConnect=0;dashed=0;verticalLabelPosition=bottom;verticalAlign=top;align=center;html=1;shape=mxgraph.aws3.lambda_function;fillColor=#F58534;gradientColor=none;" parent="1" vertex="1">
          <mxGeometry x="580" y="239" width="69" height="72" as="geometry" />
        </mxCell>
        <mxCell id="DscDZog3NxIWNlE2ua5N-6" value="snaplife-company-service" style="outlineConnect=0;dashed=0;verticalLabelPosition=bottom;verticalAlign=top;align=center;html=1;shape=mxgraph.aws3.lambda_function;fillColor=#F58534;gradientColor=none;" parent="1" vertex="1">
          <mxGeometry x="580" y="364" width="69" height="72" as="geometry" />
        </mxCell>
        <mxCell id="DscDZog3NxIWNlE2ua5N-24" style="edgeStyle=orthogonalEdgeStyle;rounded=0;orthogonalLoop=1;jettySize=auto;html=1;" parent="1" source="DscDZog3NxIWNlE2ua5N-9" target="DscDZog3NxIWNlE2ua5N-25" edge="1">
          <mxGeometry relative="1" as="geometry">
            <mxPoint x="790" y="515" as="targetPoint" />
          </mxGeometry>
        </mxCell>
        <mxCell id="DscDZog3NxIWNlE2ua5N-9" value="snaplife-identity-service" style="outlineConnect=0;dashed=0;verticalLabelPosition=bottom;verticalAlign=top;align=center;html=1;shape=mxgraph.aws3.lambda_function;fillColor=#F58534;gradientColor=none;" parent="1" vertex="1">
          <mxGeometry x="580" y="480" width="69" height="72" as="geometry" />
        </mxCell>
        <mxCell id="DscDZog3NxIWNlE2ua5N-13" style="edgeStyle=orthogonalEdgeStyle;rounded=0;orthogonalLoop=1;jettySize=auto;html=1;entryX=0;entryY=0.5;entryDx=0;entryDy=0;entryPerimeter=0;" parent="1" source="DscDZog3NxIWNlE2ua5N-4" target="DscDZog3NxIWNlE2ua5N-9" edge="1">
          <mxGeometry relative="1" as="geometry" />
        </mxCell>
        <mxCell id="DscDZog3NxIWNlE2ua5N-15" style="edgeStyle=orthogonalEdgeStyle;rounded=0;orthogonalLoop=1;jettySize=auto;html=1;entryX=0;entryY=0.5;entryDx=0;entryDy=0;entryPerimeter=0;" parent="1" source="DscDZog3NxIWNlE2ua5N-4" target="DscDZog3NxIWNlE2ua5N-6" edge="1">
          <mxGeometry relative="1" as="geometry" />
        </mxCell>
        <mxCell id="DscDZog3NxIWNlE2ua5N-16" value="snaplife-communication-service" style="outlineConnect=0;dashed=0;verticalLabelPosition=bottom;verticalAlign=top;align=center;html=1;shape=mxgraph.aws3.lambda_function;fillColor=#F58534;gradientColor=none;" parent="1" vertex="1">
          <mxGeometry x="580" y="600" width="69" height="72" as="geometry" />
        </mxCell>
        <mxCell id="DscDZog3NxIWNlE2ua5N-19" style="edgeStyle=orthogonalEdgeStyle;rounded=0;orthogonalLoop=1;jettySize=auto;html=1;entryX=0;entryY=0.5;entryDx=0;entryDy=0;entryPerimeter=0;" parent="1" source="DscDZog3NxIWNlE2ua5N-4" target="DscDZog3NxIWNlE2ua5N-16" edge="1">
          <mxGeometry relative="1" as="geometry" />
        </mxCell>
        <mxCell id="DscDZog3NxIWNlE2ua5N-43" style="edgeStyle=orthogonalEdgeStyle;rounded=0;orthogonalLoop=1;jettySize=auto;html=1;entryX=0.673;entryY=0.992;entryDx=0;entryDy=0;entryPerimeter=0;" parent="1" source="DscDZog3NxIWNlE2ua5N-44" target="DscDZog3NxIWNlE2ua5N-31" edge="1">
          <mxGeometry relative="1" as="geometry" />
        </mxCell>
        <mxCell id="DscDZog3NxIWNlE2ua5N-20" value="snaplife-consent-service" style="outlineConnect=0;dashed=0;verticalLabelPosition=bottom;verticalAlign=top;align=center;html=1;shape=mxgraph.aws3.lambda_function;fillColor=#F58534;gradientColor=none;" parent="1" vertex="1">
          <mxGeometry x="580" y="720" width="69" height="72" as="geometry" />
        </mxCell>
        <mxCell id="DscDZog3NxIWNlE2ua5N-21" style="edgeStyle=orthogonalEdgeStyle;rounded=0;orthogonalLoop=1;jettySize=auto;html=1;entryX=0;entryY=0.5;entryDx=0;entryDy=0;entryPerimeter=0;" parent="1" source="DscDZog3NxIWNlE2ua5N-4" target="DscDZog3NxIWNlE2ua5N-20" edge="1">
          <mxGeometry relative="1" as="geometry" />
        </mxCell>
        <mxCell id="DscDZog3NxIWNlE2ua5N-30" style="edgeStyle=orthogonalEdgeStyle;rounded=0;orthogonalLoop=1;jettySize=auto;html=1;" parent="1" source="DscDZog3NxIWNlE2ua5N-25" target="DscDZog3NxIWNlE2ua5N-27" edge="1">
          <mxGeometry relative="1" as="geometry" />
        </mxCell>
        <mxCell id="DscDZog3NxIWNlE2ua5N-25" value="Amazon SQS" style="sketch=0;outlineConnect=0;fontColor=#232F3E;gradientColor=none;strokeColor=#ffffff;fillColor=#232F3E;dashed=0;verticalLabelPosition=middle;verticalAlign=bottom;align=center;html=1;whiteSpace=wrap;fontSize=10;fontStyle=1;spacing=3;shape=mxgraph.aws4.productIcon;prIcon=mxgraph.aws4.sqs;" parent="1" vertex="1">
          <mxGeometry x="770" y="465" width="80" height="100" as="geometry" />
        </mxCell>
        <mxCell id="DscDZog3NxIWNlE2ua5N-47" style="edgeStyle=orthogonalEdgeStyle;rounded=0;orthogonalLoop=1;jettySize=auto;html=1;" parent="1" source="DscDZog3NxIWNlE2ua5N-27" target="DscDZog3NxIWNlE2ua5N-46" edge="1">
          <mxGeometry relative="1" as="geometry" />
        </mxCell>
        <mxCell id="DscDZog3NxIWNlE2ua5N-27" value="snaplife-notification-service" style="outlineConnect=0;dashed=0;verticalLabelPosition=bottom;verticalAlign=top;align=center;html=1;shape=mxgraph.aws3.lambda_function;fillColor=#F58534;gradientColor=none;" parent="1" vertex="1">
          <mxGeometry x="970" y="479" width="69" height="72" as="geometry" />
        </mxCell>
        <mxCell id="DscDZog3NxIWNlE2ua5N-31" value="" style="image;aspect=fixed;html=1;points=[];align=center;fontSize=12;image=img/lib/azure2/databases/Azure_Database_PostgreSQL_Server.svg;" parent="1" vertex="1">
          <mxGeometry x="1300" y="444.33" width="98" height="130.67" as="geometry" />
        </mxCell>
        <mxCell id="DscDZog3NxIWNlE2ua5N-33" value="organization" style="whiteSpace=wrap;html=1;align=center;" parent="1" vertex="1">
          <mxGeometry x="1270" y="254" width="100" height="40" as="geometry" />
        </mxCell>
        <mxCell id="DscDZog3NxIWNlE2ua5N-36" style="edgeStyle=orthogonalEdgeStyle;rounded=0;orthogonalLoop=1;jettySize=auto;html=1;entryX=0.347;entryY=0;entryDx=0;entryDy=0;entryPerimeter=0;" parent="1" source="DscDZog3NxIWNlE2ua5N-6" target="DscDZog3NxIWNlE2ua5N-31" edge="1">
          <mxGeometry relative="1" as="geometry" />
        </mxCell>
        <mxCell id="DscDZog3NxIWNlE2ua5N-35" value="company" style="whiteSpace=wrap;html=1;align=center;" parent="1" vertex="1">
          <mxGeometry x="1150" y="380" width="100" height="40" as="geometry" />
        </mxCell>
        <mxCell id="DscDZog3NxIWNlE2ua5N-37" style="edgeStyle=orthogonalEdgeStyle;rounded=0;orthogonalLoop=1;jettySize=auto;html=1;" parent="1" source="DscDZog3NxIWNlE2ua5N-38" target="DscDZog3NxIWNlE2ua5N-31" edge="1">
          <mxGeometry relative="1" as="geometry" />
        </mxCell>
        <mxCell id="DscDZog3NxIWNlE2ua5N-39" value="" style="edgeStyle=orthogonalEdgeStyle;rounded=0;orthogonalLoop=1;jettySize=auto;html=1;entryX=-0.041;entryY=0.612;entryDx=0;entryDy=0;entryPerimeter=0;" parent="1" source="DscDZog3NxIWNlE2ua5N-27" target="DscDZog3NxIWNlE2ua5N-38" edge="1">
          <mxGeometry relative="1" as="geometry">
            <mxPoint x="1069" y="515" as="sourcePoint" />
            <mxPoint x="1296" y="516" as="targetPoint" />
          </mxGeometry>
        </mxCell>
        <mxCell id="DscDZog3NxIWNlE2ua5N-38" value="notifications" style="whiteSpace=wrap;html=1;align=center;" parent="1" vertex="1">
          <mxGeometry x="1150" y="490" width="100" height="40" as="geometry" />
        </mxCell>
        <mxCell id="DscDZog3NxIWNlE2ua5N-40" style="edgeStyle=orthogonalEdgeStyle;rounded=0;orthogonalLoop=1;jettySize=auto;html=1;entryX=0.276;entryY=0.977;entryDx=0;entryDy=0;entryPerimeter=0;" parent="1" source="DscDZog3NxIWNlE2ua5N-41" target="DscDZog3NxIWNlE2ua5N-31" edge="1">
          <mxGeometry relative="1" as="geometry" />
        </mxCell>
        <mxCell id="DscDZog3NxIWNlE2ua5N-42" value="" style="edgeStyle=orthogonalEdgeStyle;rounded=0;orthogonalLoop=1;jettySize=auto;html=1;entryX=0;entryY=0.5;entryDx=0;entryDy=0;" parent="1" source="DscDZog3NxIWNlE2ua5N-16" target="DscDZog3NxIWNlE2ua5N-41" edge="1">
          <mxGeometry relative="1" as="geometry">
            <mxPoint x="649" y="636" as="sourcePoint" />
            <mxPoint x="1327" y="572" as="targetPoint" />
          </mxGeometry>
        </mxCell>
        <mxCell id="DscDZog3NxIWNlE2ua5N-41" value="communication" style="whiteSpace=wrap;html=1;align=center;" parent="1" vertex="1">
          <mxGeometry x="1150" y="616" width="100" height="40" as="geometry" />
        </mxCell>
        <mxCell id="DscDZog3NxIWNlE2ua5N-45" value="" style="edgeStyle=orthogonalEdgeStyle;rounded=0;orthogonalLoop=1;jettySize=auto;html=1;" parent="1" source="DscDZog3NxIWNlE2ua5N-20" target="DscDZog3NxIWNlE2ua5N-44" edge="1">
          <mxGeometry relative="1" as="geometry">
            <mxPoint x="649" y="756" as="sourcePoint" />
            <mxPoint x="1349" y="575" as="targetPoint" />
          </mxGeometry>
        </mxCell>
        <mxCell id="DscDZog3NxIWNlE2ua5N-44" value="consent" style="whiteSpace=wrap;html=1;align=center;" parent="1" vertex="1">
          <mxGeometry x="1150" y="736" width="100" height="40" as="geometry" />
        </mxCell>
        <mxCell id="DscDZog3NxIWNlE2ua5N-49" style="edgeStyle=orthogonalEdgeStyle;rounded=0;orthogonalLoop=1;jettySize=auto;html=1;entryX=0.5;entryY=0;entryDx=0;entryDy=0;" parent="1" source="DscDZog3NxIWNlE2ua5N-46" target="DscDZog3NxIWNlE2ua5N-48" edge="1">
          <mxGeometry relative="1" as="geometry" />
        </mxCell>
        <mxCell id="DscDZog3NxIWNlE2ua5N-50" value="Email Notification" style="edgeLabel;html=1;align=center;verticalAlign=middle;resizable=0;points=[];" parent="DscDZog3NxIWNlE2ua5N-49" vertex="1" connectable="0">
          <mxGeometry x="-0.5" y="1" relative="1" as="geometry">
            <mxPoint x="-1" y="22" as="offset" />
          </mxGeometry>
        </mxCell>
        <mxCell id="DscDZog3NxIWNlE2ua5N-46" value="" style="outlineConnect=0;dashed=0;verticalLabelPosition=bottom;verticalAlign=top;align=center;html=1;shape=mxgraph.aws3.ses;fillColor=#D9A741;gradientColor=none;" parent="1" vertex="1">
          <mxGeometry x="979.5" y="770" width="50" height="51" as="geometry" />
        </mxCell>
        <mxCell id="DscDZog3NxIWNlE2ua5N-48" value="" style="shape=actor;whiteSpace=wrap;html=1;" parent="1" vertex="1">
          <mxGeometry x="984.5" y="890" width="45.5" height="30" as="geometry" />
        </mxCell>
        <mxCell id="DscDZog3NxIWNlE2ua5N-51" value="demo.snapsciences.com" style="text;html=1;align=center;verticalAlign=middle;whiteSpace=wrap;rounded=0;" parent="1" vertex="1">
          <mxGeometry x="170" y="306.5" width="60" height="30" as="geometry" />
        </mxCell>
        <mxCell id="DscDZog3NxIWNlE2ua5N-55" style="edgeStyle=orthogonalEdgeStyle;rounded=0;orthogonalLoop=1;jettySize=auto;html=1;" parent="1" source="DscDZog3NxIWNlE2ua5N-52" target="DscDZog3NxIWNlE2ua5N-53" edge="1">
          <mxGeometry relative="1" as="geometry" />
        </mxCell>
        <mxCell id="DscDZog3NxIWNlE2ua5N-52" value="" style="shape=actor;whiteSpace=wrap;html=1;" parent="1" vertex="1">
          <mxGeometry x="-590" y="230" width="60" height="60" as="geometry" />
        </mxCell>
        <mxCell id="DscDZog3NxIWNlE2ua5N-53" value="" style="image;aspect=fixed;html=1;points=[];align=center;fontSize=12;image=img/lib/azure2/general/Browser.svg;" parent="1" vertex="1">
          <mxGeometry x="-440" y="234" width="65" height="52" as="geometry" />
        </mxCell>
        <mxCell id="DscDZog3NxIWNlE2ua5N-60" style="edgeStyle=orthogonalEdgeStyle;rounded=0;orthogonalLoop=1;jettySize=auto;html=1;" parent="1" source="DscDZog3NxIWNlE2ua5N-54" target="DscDZog3NxIWNlE2ua5N-59" edge="1">
          <mxGeometry relative="1" as="geometry" />
        </mxCell>
        <mxCell id="DscDZog3NxIWNlE2ua5N-54" value="" style="points=[];aspect=fixed;html=1;align=center;shadow=0;dashed=0;fillColor=#FF6A00;strokeColor=none;shape=mxgraph.alibaba_cloud.uis_ultimate_internet_service;" parent="1" vertex="1">
          <mxGeometry x="-294.9" y="233" width="54.900000000000006" height="54" as="geometry" />
        </mxCell>
        <mxCell id="DscDZog3NxIWNlE2ua5N-56" style="edgeStyle=orthogonalEdgeStyle;rounded=0;orthogonalLoop=1;jettySize=auto;html=1;entryX=0.073;entryY=0.5;entryDx=0;entryDy=0;entryPerimeter=0;" parent="1" source="DscDZog3NxIWNlE2ua5N-53" target="DscDZog3NxIWNlE2ua5N-54" edge="1">
          <mxGeometry relative="1" as="geometry" />
        </mxCell>
        <mxCell id="DscDZog3NxIWNlE2ua5N-57" value="Browser" style="text;html=1;align=center;verticalAlign=middle;resizable=0;points=[];autosize=1;strokeColor=none;fillColor=none;" parent="1" vertex="1">
          <mxGeometry x="-455" y="291" width="70" height="30" as="geometry" />
        </mxCell>
        <mxCell id="DscDZog3NxIWNlE2ua5N-58" value="Internet" style="text;html=1;align=center;verticalAlign=middle;resizable=0;points=[];autosize=1;strokeColor=none;fillColor=none;" parent="1" vertex="1">
          <mxGeometry x="-300" y="291" width="60" height="30" as="geometry" />
        </mxCell>
        <mxCell id="DscDZog3NxIWNlE2ua5N-62" style="edgeStyle=orthogonalEdgeStyle;rounded=0;orthogonalLoop=1;jettySize=auto;html=1;" parent="1" source="DscDZog3NxIWNlE2ua5N-59" target="DscDZog3NxIWNlE2ua5N-61" edge="1">
          <mxGeometry relative="1" as="geometry" />
        </mxCell>
        <mxCell id="DscDZog3NxIWNlE2ua5N-59" value="" style="sketch=0;points=[[0,0,0],[0.25,0,0],[0.5,0,0],[0.75,0,0],[1,0,0],[0,1,0],[0.25,1,0],[0.5,1,0],[0.75,1,0],[1,1,0],[0,0.25,0],[0,0.5,0],[0,0.75,0],[1,0.25,0],[1,0.5,0],[1,0.75,0]];outlineConnect=0;fontColor=#232F3E;fillColor=#8C4FFF;strokeColor=#ffffff;dashed=0;verticalLabelPosition=bottom;verticalAlign=top;align=center;html=1;fontSize=12;fontStyle=0;aspect=fixed;shape=mxgraph.aws4.resourceIcon;resIcon=mxgraph.aws4.route_53;" parent="1" vertex="1">
          <mxGeometry x="-130" y="230" width="59" height="59" as="geometry" />
        </mxCell>
        <mxCell id="DscDZog3NxIWNlE2ua5N-65" style="edgeStyle=orthogonalEdgeStyle;rounded=0;orthogonalLoop=1;jettySize=auto;html=1;" parent="1" source="DscDZog3NxIWNlE2ua5N-61" target="DscDZog3NxIWNlE2ua5N-2" edge="1">
          <mxGeometry relative="1" as="geometry" />
        </mxCell>
        <mxCell id="DscDZog3NxIWNlE2ua5N-61" value="" style="sketch=0;points=[[0,0,0],[0.25,0,0],[0.5,0,0],[0.75,0,0],[1,0,0],[0,1,0],[0.25,1,0],[0.5,1,0],[0.75,1,0],[1,1,0],[0,0.25,0],[0,0.5,0],[0,0.75,0],[1,0.25,0],[1,0.5,0],[1,0.75,0]];outlineConnect=0;fontColor=#232F3E;fillColor=#8C4FFF;strokeColor=#ffffff;dashed=0;verticalLabelPosition=bottom;verticalAlign=top;align=center;html=1;fontSize=12;fontStyle=0;aspect=fixed;shape=mxgraph.aws4.resourceIcon;resIcon=mxgraph.aws4.cloudfront;" parent="1" vertex="1">
          <mxGeometry y="230" width="60" height="60" as="geometry" />
        </mxCell>
        <mxCell id="DscDZog3NxIWNlE2ua5N-67" value="us-east-1" style="text;html=1;align=center;verticalAlign=middle;whiteSpace=wrap;rounded=0;fontStyle=1" parent="1" vertex="1">
          <mxGeometry x="974.5" y="200" width="60" height="30" as="geometry" />
        </mxCell>
      </root>
    </mxGraphModel>
  </diagram>
</mxfile>
